<?xml version="1.0" encoding="UTF-8"?>
<svg version="1.1" xmlns="http://www.w3.org/2000/svg" width="401" height="712">
<path d="M0 0 C1.52801633 0.6426331 3.05809123 1.28038637 4.58984375 1.9140625 C12.04955059 5.04117283 18.90465532 8.03705295 25.0859375 13.37109375 C27.03140679 15.02672782 29.02165538 16.33680054 31.1875 17.6875 C41.29056347 24.31159553 50.14499739 32.9934444 58.91308594 41.25439453 C61.72712376 43.94142434 61.72712376 43.94142434 65 46 C65 46.66 65 47.32 65 48 C65.59925293 48.26119629 66.19850586 48.52239258 66.81591797 48.79150391 C69.14454764 50.07998109 70.30398212 51.26270775 71.9453125 53.3359375 C72.46480469 53.98820312 72.98429687 54.64046875 73.51953125 55.3125 C74.04933594 55.993125 74.57914062 56.67375 75.125 57.375 C75.66253906 58.04789062 76.20007813 58.72078125 76.75390625 59.4140625 C83.29632342 67.70221193 83.29632342 67.70221193 83.1875 73.6875 C83.18105469 74.47511719 83.17460937 75.26273437 83.16796875 76.07421875 C83 78 83 78 82 79 C66.95068517 81.35975757 66.95068517 81.35975757 60.82714844 77.70214844 C56.90475994 74.45689616 53.68937103 70.6612166 50.49462891 66.71582031 C48.24850042 64.13728536 45.66061048 62.14146697 43 60 C42.13375 58.824375 42.13375 58.824375 41.25 57.625 C37.77043682 53.56550962 33.42565509 50.95425359 29 48 C27.8569312 47.20476359 26.71505932 46.40780473 25.57421875 45.609375 C17.31625266 39.88866153 8.87038853 35.10752697 -0.22070312 30.83886719 C-1.78604824 30.10086968 -3.33939777 29.3375411 -4.890625 28.5703125 C-38.49811608 12.37029435 -74.29762284 13.62958183 -109 25 C-113.50360709 26.66725198 -117.76236142 28.74543463 -122 31 C-122.92554688 31.47179687 -123.85109375 31.94359375 -124.8046875 32.4296875 C-130.84026708 35.59280994 -136.46329033 39.23146558 -142.09375 43.0625 C-144.70671368 44.80447579 -147.34957661 46.42032309 -150.0625 48 C-170.82167832 60.31533247 -184.82170146 77.8445301 -194 100 C-194.66 100 -195.32 100 -196 100 C-196.17668213 100.53367187 -196.35336426 101.06734375 -196.53540039 101.6171875 C-197.8949817 105.7114265 -199.27167815 109.79849181 -200.68359375 113.875 C-209.22723638 138.72135676 -212.77744995 160.99654152 -209.4375 187.171875 C-209.09446775 190.17340718 -208.90515083 192.98853875 -209 196 C-201.71355112 192.04522583 -195.30159369 187.75321242 -188.984375 182.39453125 C-184.40016435 178.71636223 -179.49855942 175.56482672 -174.578125 172.359375 C-171.53934326 170.37728238 -168.61009092 168.27558577 -165.6875 166.125 C-161.85691712 163.4266091 -158.12638756 161.61823595 -153.73046875 160.0234375 C-150.59876046 158.84960692 -147.60352761 157.45409684 -144.5625 156.0625 C-135.96375108 152.3640132 -127.09142638 150.14703936 -118 148 C-117.18821289 147.80631836 -116.37642578 147.61263672 -115.54003906 147.41308594 C-113.15395144 146.84833712 -110.76553669 146.29558946 -108.375 145.75 C-107.66569336 145.58677246 -106.95638672 145.42354492 -106.22558594 145.25537109 C-97.50389895 143.33020323 -88.86409486 142.82442048 -79.94921875 142.7265625 C-78.90515366 142.71398911 -77.86108856 142.70141571 -76.78538513 142.6884613 C-32.78420805 142.26102375 -32.78420805 142.26102375 -12 148 C-11.04125977 148.26232422 -10.08251953 148.52464844 -9.09472656 148.79492188 C2.92837811 152.20904149 14.06083077 156.99224771 25 163 C25.70229736 163.37664795 26.40459473 163.7532959 27.12817383 164.14135742 C32.68982454 167.16078055 37.95092323 170.51341344 43.1875 174.0625 C44.33895508 174.8369043 44.33895508 174.8369043 45.51367188 175.62695312 C47.00633936 176.63101823 48.49752897 177.63728471 49.98706055 178.64599609 C51.69785995 179.79676547 53.42537928 180.92261555 55.15625 182.04296875 C58.38745969 184.26664465 61.3424195 186.69391171 64.3125 189.25 C64.87428955 189.73090088 65.4360791 190.21180176 66.01489258 190.70727539 C67.14588545 191.67759662 68.27539158 192.64965377 69.40332031 193.62353516 C70.85419722 194.87430641 72.31336939 196.11543907 73.7734375 197.35546875 C74.57007813 198.04253906 75.36671875 198.72960937 76.1875 199.4375 C76.88230469 200.03433594 77.57710938 200.63117188 78.29296875 201.24609375 C81.4490996 204.4888918 82 206.43465387 82 211 C73.87867963 214.33554229 63.43608883 216.6472024 54.6953125 214.41015625 C50.79105614 212.31409235 47.46917463 208.85586351 44.19921875 205.875 C40.96483813 203.11744636 37.45316843 200.81481115 33.90625 198.48046875 C33.2771875 197.99191406 32.648125 197.50335938 32 197 C32 196.34 32 195.68 32 195 C31.2884375 194.73703125 30.576875 194.4740625 29.84375 194.203125 C26.86843128 192.94433631 24.25711402 191.43153657 21.5 189.75 C6.66702089 180.99581233 -8.56391401 175.83339015 -25.3125 172.3125 C-26.75340177 172.00263389 -28.19415811 171.69209066 -29.63476562 171.38085938 C-41.52378317 168.80693267 -41.52378317 168.80693267 -53.61328125 167.68359375 C-54.86173828 167.64169922 -56.11019531 167.59980469 -57.39648438 167.55664062 C-58.68876953 167.51732422 -59.98105469 167.47800781 -61.3125 167.4375 C-62.59318359 167.39431641 -63.87386719 167.35113281 -65.19335938 167.30664062 C-68.79536266 167.18984896 -72.39720124 167.08861935 -76 167 C-77.31436035 166.96712891 -77.31436035 166.96712891 -78.65527344 166.93359375 C-113.45420932 166.45791415 -148.30489574 183.62054574 -174.6328125 205.109375 C-176.70824464 206.76698087 -178.82417241 208.29204216 -181 209.8125 C-184.47220669 212.40953984 -187.51735918 215.36306649 -190.5 218.5 C-191.3559375 219.3971875 -192.211875 220.294375 -193.09375 221.21875 C-195.39668186 224.57876534 -195.3371602 225.99777206 -195 230 C-194.0699899 232.66624645 -194.0699899 232.66624645 -192.65625 235.23046875 C-192.15552979 236.19355957 -191.65480957 237.15665039 -191.13891602 238.14892578 C-190.59807373 239.15165527 -190.05723145 240.15438477 -189.5 241.1875 C-188.6800354 242.73026611 -188.6800354 242.73026611 -187.84350586 244.30419922 C-182.82432381 253.60138685 -177.50904399 261.52428017 -170 269 C-169.04937428 270.03432339 -168.1056111 271.07498623 -167.16796875 272.12109375 C-160.19462604 279.89682308 -153.68852878 286.64016205 -144 291 C-144 291.66 -144 292.32 -144 293 C-143.2575 293.28488281 -142.515 293.56976563 -141.75 293.86328125 C-139.37437065 294.84525304 -137.24221688 295.9432395 -135 297.1875 C-128.82040759 300.34263933 -122.26671826 302.34178182 -115.6640625 304.4128418 C-110.77522426 305.96998378 -106.25535993 307.73304323 -101.71142578 310.1184082 C-99.61492216 311.19836178 -97.4674354 312.01438052 -95.25 312.8125 C-85.47581101 316.66837272 -77.08786989 322.48920008 -68.8125 328.87890625 C-66.36913248 330.72161259 -63.90305303 332.37640687 -61.3125 334 C-57.06094863 336.77041525 -53.69910226 340.12543365 -50.19140625 343.7734375 C-48.16609867 345.83123664 -46.08007739 347.70156764 -43.875 349.5625 C-37.28647531 355.23595181 -32.1109236 362.00919645 -27 369 C-26.17242187 370.04414062 -26.17242187 370.04414062 -25.328125 371.109375 C-24 373 -24 373 -24 375 C-23.34 375 -22.68 375 -22 375 C-10.84196437 393.99240107 -3.1947386 412.11065122 2.25 433.5 C2.50861816 434.51513672 2.76723633 435.53027344 3.03369141 436.57617188 C3.27522949 437.55134766 3.51676758 438.52652344 3.765625 439.53125 C3.97993164 440.39298828 4.19423828 441.25472656 4.41503906 442.14257812 C5.74187683 448.62392587 6.15805153 454.93903538 6.16796875 461.53125 C6.17129715 462.32543335 6.17462555 463.1196167 6.17805481 463.93786621 C6.18308804 465.61189196 6.18546426 467.28592763 6.18530273 468.95996094 C6.18747031 471.46567266 6.20561235 473.97092948 6.22460938 476.4765625 C6.2594013 486.80555783 5.56325891 496.78966079 4 507 C5.98 506.34 7.96 505.68 10 505 C10 504.34 10 503.68 10 503 C10.59425781 502.72027344 11.18851562 502.44054687 11.80078125 502.15234375 C18.53510772 498.89515008 24.76318471 495.12090531 31 491 C31.99386719 490.34644531 32.98773438 489.69289063 34.01171875 489.01953125 C38.84129981 485.82248464 43.61150784 482.57078981 48.3125 479.1875 C55.44016305 474.22076337 62.21772064 471.5578153 71 472 C75.27502998 473.24134204 78.83977134 474.83977134 82 478 C81.48342033 482.50688829 78.44680596 485.11458545 75.4375 488.25 C74.89464355 488.82484131 74.35178711 489.39968262 73.79248047 489.99194336 C72.20281386 491.66898275 70.60262712 493.33535571 69 495 C68.22011719 495.82113281 67.44023437 496.64226562 66.63671875 497.48828125 C62.99768852 501.24036873 59.43587166 504.19363222 55 507 C53.61865459 508.096218 52.24432645 509.20130511 50.875 510.3125 C42.06061189 517.22227159 32.02327335 522.10643854 22 527 C21.39357666 527.31807617 20.78715332 527.63615234 20.16235352 527.96386719 C15.36920227 530.45439729 10.57221027 532.22817015 5.4375 533.875 C-3.39810221 536.87100743 -8.29205182 539.77631624 -12.92260742 548.08032227 C-15.06980251 551.90615389 -17.37617061 555.63973634 -19.64453125 559.39453125 C-21.49818468 562.47121374 -23.31969717 565.55698058 -25.07421875 568.69140625 C-33.40370606 583.00190473 -46.79601748 596.16962384 -60 606 C-61.58388176 607.33268181 -63.16719898 608.6660348 -64.75 610 C-80.63167595 622.64102245 -100.04841557 629.49542165 -119.3125 635.0625 C-120.17294922 635.31837891 -121.03339844 635.57425781 -121.91992188 635.83789062 C-135.36374941 639.72033228 -148.28214022 640.43257022 -162.1875 640.4375 C-163.57373566 640.44209229 -163.57373566 640.44209229 -164.98797607 640.44677734 C-180.15649807 640.45991794 -194.32771067 639.13551783 -209 635 C-210.1673418 631.4979746 -209.79056598 630.70383962 -208.56640625 627.33203125 C-208.0878418 625.99301758 -208.0878418 625.99301758 -207.59960938 624.62695312 C-207.25736328 623.69818359 -206.91511719 622.76941406 -206.5625 621.8125 C-206.22412109 620.87212891 -205.88574219 619.93175781 -205.53710938 618.96289062 C-204.69951191 616.63885258 -203.85354717 614.31821765 -203 612 C-198.35850177 612.47352659 -193.77422677 613.01150981 -189.1796875 613.82421875 C-154.41862215 619.67323041 -117.73284648 613.16769716 -87 596 C-85.56333984 595.22269531 -85.56333984 595.22269531 -84.09765625 594.4296875 C-75.3156161 589.2971589 -68.21820225 582.07978711 -61 575 C-60.37085693 574.3905957 -59.74171387 573.78119141 -59.09350586 573.15332031 C-56.06715086 570.18843629 -53.29729657 567.37708198 -51.0625 563.75 C-48.78061244 560.12679973 -46.33753776 556.65805159 -43.80859375 553.203125 C-43.09372803 552.22504883 -42.3788623 551.24697266 -41.64233398 550.23925781 C-41.10036377 549.50030273 -40.55839355 548.76134766 -40 548 C-40.9072583 547.96559814 -41.8145166 547.93119629 -42.74926758 547.89575195 C-60.22566822 547.18924751 -77.55081176 546.10151018 -94.875 543.625 C-95.94531967 543.47655136 -95.94531967 543.47655136 -97.03726196 543.32510376 C-106.61274289 541.97964865 -115.76217827 539.86849322 -125 537 C-126.44625441 536.57429529 -127.89280468 536.14959233 -129.33984375 535.7265625 C-157.37338778 527.14300179 -181.64603474 512.81654653 -203.51806641 493.31884766 C-205.55676828 491.50450375 -207.62366681 489.72314802 -209.6875 487.9375 C-214.20544364 484.00057794 -214.20544364 484.00057794 -216 482 C-216 481.34 -216 480.68 -216 480 C-216.66 480 -217.32 480 -218 480 C-219.73082971 477.97228698 -221.34408286 475.94395409 -222.9375 473.8125 C-223.38029297 473.23435547 -223.82308594 472.65621094 -224.27929688 472.06054688 C-226.20835471 469.51626045 -227.99441106 467.00939532 -229.62890625 464.26171875 C-230.8419499 462.03042075 -230.8419499 462.03042075 -232.38696289 460.70385742 C-236.12374479 456.75668005 -238.32412805 451.38203147 -240.875 446.625 C-241.79345703 444.94857422 -241.79345703 444.94857422 -242.73046875 443.23828125 C-246.80200345 435.67935066 -250.07056906 428.06293533 -253 420 C-253.58775379 418.50387133 -254.17852469 417.00892145 -254.7734375 415.515625 C-258.86566003 404.80443852 -261.52958084 393.94786199 -263.875 382.75 C-264.1018045 381.66869812 -264.1018045 381.66869812 -264.33319092 380.56555176 C-266.90738831 368.18782627 -268.26550831 356.66531131 -268 344 C-267.98743164 343.25169922 -267.97486328 342.50339844 -267.96191406 341.73242188 C-267.67889916 327.88201923 -265.78884382 314.55913859 -263 301 C-262.83016602 300.16001465 -262.66033203 299.3200293 -262.48535156 298.45458984 C-257.49409113 274.48983366 -247.6463202 252.8407226 -235 232 C-234.48324707 231.12802979 -233.96649414 230.25605957 -233.43408203 229.35766602 C-232 227 -232 227 -230.26953125 224.671875 C-228.5416261 221.03529923 -229.07288533 218.09013353 -229.6875 214.25 C-229.84206665 213.11921021 -229.84206665 213.11921021 -229.99975586 211.96557617 C-230.31756404 209.64119537 -230.6562343 207.32066902 -231 205 C-232.55012727 194.26918939 -233.29362285 183.64910321 -233.6875 172.8125 C-233.73592041 171.56573486 -233.78434082 170.31896973 -233.83422852 169.03442383 C-234.25763143 155.40192857 -232.977235 142.44150106 -230.39404297 129.08740234 C-230.01902809 127.10079936 -229.68229431 125.10708288 -229.34765625 123.11328125 C-226.68471621 108.03379237 -220.424921 95.22657993 -213 82 C-212.6707251 81.41001221 -212.3414502 80.82002441 -212.00219727 80.2121582 C-204.71197328 67.26807451 -195.99473453 53.12672917 -185 43 C-184.34 43 -183.68 43 -183 43 C-182.34 41.68 -181.68 40.36 -181 39 C-180.34 39 -179.68 39 -179 39 C-178.75064697 38.41766602 -178.50129395 37.83533203 -178.24438477 37.23535156 C-173.8181078 29.28420541 -163.99243286 24.0463527 -156.5625 19.25 C-155.10360352 18.28126953 -155.10360352 18.28126953 -153.61523438 17.29296875 C-148.27719363 13.81985473 -143.10453936 11.02242857 -137.13208008 8.80957031 C-134.6182939 7.8550627 -132.36255132 6.63774046 -130.0625 5.25 C-126.32831325 3 -126.32831325 3 -123 3 C-123 2.34 -123 1.68 -123 1 C-83.90836221 -14.42862866 -39.02772216 -17.93506973 0 0 Z M-217 247 C-217 247.66 -217 248.32 -217 249 C-217.66 249 -218.32 249 -219 249 C-225.08653742 257.38955158 -229.00324512 267.3241298 -233.04296875 276.8059082 C-233.68214354 278.27128164 -234.34649478 279.72592291 -235.03515625 281.16870117 C-243.99102219 300.11784892 -244.12200141 322.66769613 -244.86230469 343.27587891 C-244.976229 346.35708707 -245.12512862 349.43294617 -245.2890625 352.51171875 C-246.62466035 385.31904458 -232.75019472 420.24959256 -213.7890625 446.51953125 C-212.58848051 448.18409362 -211.4166503 449.86974537 -210.2734375 451.57421875 C-205.82158478 458.06255729 -200.73791023 463.51721667 -195.09936523 468.96582031 C-191.61062809 472.3390038 -188.44146466 475.77278965 -185.46142578 479.60839844 C-183.70873167 481.27735207 -182.35781877 481.60734584 -180 482 C-180 482.66 -180 483.32 -180 484 C-176.67530569 486.80485379 -173.11742723 489.30531083 -169.58984375 491.84814453 C-168.20522745 492.85131095 -166.83559771 493.87509864 -165.46875 494.90234375 C-158.74440685 499.84473596 -151.49139925 503.40700276 -144 507 C-142.58165109 507.725889 -141.16463919 508.45440763 -139.75 509.1875 C-115.14330429 521.37540558 -85.30885773 526.2709003 -58 525 C-57.3488623 524.97921387 -56.69772461 524.95842773 -56.02685547 524.93701172 C-39.70121866 524.42937662 -39.70121866 524.42937662 -25 518 C-17.00168857 508.64747711 -15.86792315 496.36682868 -15.796875 484.57421875 C-15.78986069 483.79322311 -15.78284637 483.01222748 -15.77561951 482.20756531 C-15.75820667 479.70081759 -15.75176717 477.19430597 -15.75 474.6875 C-15.74932526 473.83174377 -15.74865051 472.97598755 -15.74795532 472.09429932 C-15.76339579 459.79243231 -16.17536477 448.01778949 -19 436 C-19.35576209 434.33209379 -19.71121624 432.66412188 -20.06640625 430.99609375 C-23.66254971 414.85600609 -29.79943626 400.6399059 -39 386.875 C-39.66 385.88242187 -40.32 384.88984375 -41 383.8671875 C-44.30785007 379.12507431 -47.90053004 375.0687393 -52 371 C-52.92786 369.97792243 -53.84815904 368.94894192 -54.76171875 367.9140625 C-60.68261128 361.23343614 -66.45332841 355.85792629 -74 351 C-75.19495966 350.07202699 -76.38260594 349.13455465 -77.5625 348.1875 C-81.69040593 345.05773526 -86.10973421 342.44664446 -90.5625 339.8125 C-91.2831665 339.38412842 -92.00383301 338.95575684 -92.74633789 338.5144043 C-93.45008545 338.10359619 -94.15383301 337.69278809 -94.87890625 337.26953125 C-95.5035376 336.90448486 -96.12816895 336.53943848 -96.77172852 336.16333008 C-99.77635364 334.59468334 -102.87574565 333.31313144 -106 332 C-110.34028995 330.13194166 -114.67863455 328.25941521 -119.01586914 326.38427734 C-120.38179859 325.79410718 -121.74801046 325.20459026 -123.11450195 324.61572266 C-125.10959575 323.75586331 -127.10371427 322.89377637 -129.09765625 322.03125 C-130.27851807 321.52142578 -131.45937988 321.01160156 -132.67602539 320.48632812 C-135.83334683 319.07451961 -138.91760511 317.56756901 -142 316 C-143.29097688 315.36448227 -144.58255568 314.73018432 -145.875 314.09765625 C-147.25002761 313.41932679 -148.62502719 312.74094053 -150 312.0625 C-150.68578125 311.72798828 -151.3715625 311.39347656 -152.078125 311.04882812 C-159.92644078 307.16211449 -165.79946602 302.45397933 -171.875 296.1875 C-175.87564988 292.08278697 -179.85839571 288.06678775 -184.234375 284.359375 C-187.49615399 281.55494807 -189.96401928 278.64944887 -192.375 275.0625 C-193.53694454 273.3427295 -194.73339238 271.64421131 -196 270 C-196.66 270 -197.32 270 -198 270 C-198.26167969 269.28585937 -198.52335937 268.57171875 -198.79296875 267.8359375 C-200.91037802 262.86105359 -204.03740553 258.504943 -207 254 C-207.46019531 253.25105469 -207.92039063 252.50210937 -208.39453125 251.73046875 C-209.71125548 249.58628122 -209.71125548 249.58628122 -212 247 C-214.71471005 246.41231617 -214.71471005 246.41231617 -217 247 Z " fill="#959EA9" transform="translate(288,36)"/>
</svg>
