<svg xmlns="http://www.w3.org/2000/svg" viewBox="0 0 256 256" role="img" aria-label="Default male profile silhouette">
  <defs>
    <linearGradient id="bg" x1="0" y1="0" x2="1" y2="1">
      <stop offset="0%" stop-color="#1e3a5f"/>
      <stop offset="100%" stop-color="#0b1528"/>
    </linearGradient>
    <linearGradient id="glow" x1="0.5" y1="0" x2="0.5" y2="1">
      <stop offset="0%" stop-color="#5eb0ff" stop-opacity="0.35"/>
      <stop offset="100%" stop-color="#5eb0ff" stop-opacity="0"/>
    </linearGradient>
  </defs>
  <rect width="256" height="256" fill="url(#bg)"/>
  <ellipse cx="128" cy="210" rx="92" ry="28" fill="#000" opacity="0.28"/>
  <ellipse cx="128" cy="118" rx="78" ry="88" fill="url(#glow)"/>
  <path fill="#0a0e18" d="M128 44c-22 0-38 18-38 40 0 14 6 26 16 34-18 8-30 26-30 48v8c0 6 5 10 12 10h80c7 0 12-4 12-10v-8c0-22-12-40-30-48 10-8 16-20 16-34 0-22-16-40-38-40zm0 18c12 0 22 10 22 22s-10 22-22 22-22-10-22-22 10-22 22-22z"/>
  <path fill="#1a2438" opacity="0.55" d="M92 126c14 10 32 16 36 16s22-6 36-16c8 12 12 26 12 40v6H80v-6c0-14 4-28 12-40z"/>
</svg>
