<svg xmlns="http://www.w3.org/2000/svg" viewBox="0 0 256 256" role="img" aria-label="Default neutral profile silhouette">
  <defs>
    <linearGradient id="bg" x1="0" y1="0" x2="1" y2="1">
      <stop offset="0%" stop-color="#1a3344"/>
      <stop offset="100%" stop-color="#0a1218"/>
    </linearGradient>
    <linearGradient id="glow" x1="0.5" y1="0" x2="0.5" y2="1">
      <stop offset="0%" stop-color="#7ad4c8" stop-opacity="0.3"/>
      <stop offset="100%" stop-color="#7ad4c8" stop-opacity="0"/>
    </linearGradient>
  </defs>
  <rect width="256" height="256" fill="url(#bg)"/>
  <ellipse cx="128" cy="210" rx="90" ry="27" fill="#000" opacity="0.28"/>
  <ellipse cx="128" cy="118" rx="76" ry="86" fill="url(#glow)"/>
  <path fill="#0a0e18" d="M128 48c-18 0-34 15-34 36 0 13 6 24 15 32-17 9-29 26-29 47v9c0 6 5 10 12 10h84c7 0 12-4 12-10v-9c0-21-12-38-29-47 9-8 15-19 15-32 0-21-16-36-34-36zm0 17c10 0 18 8 18 18s-8 18-18 18-18-8-18-18 8-18 18-18z"/>
  <path fill="#1a2438" opacity="0.6" d="M95 126c13 11 30 16 33 16s20-5 33-16c7 13 11 27 11 41v7H84v-7c0-14 4-28 11-41z"/>
  <ellipse cx="128" cy="98" rx="34" ry="38" fill="#000" opacity="0.12"/>
</svg>
